<?xml version="1.0" standalone="no"?>
<!DOCTYPE svg PUBLIC "-//W3C//DTD SVG 20010904//EN"
 "http://www.w3.org/TR/2001/REC-SVG-20010904/DTD/svg10.dtd">
<svg version="1.0" xmlns="http://www.w3.org/2000/svg"
 width="512.000000pt" height="512.000000pt" viewBox="0 0 512.000000 512.000000"
 preserveAspectRatio="xMidYMid meet">
<metadata>
Created by potrace 1.11, written by Peter Selinger 2001-2013
</metadata>
<g transform="translate(0.000000,512.000000) scale(0.100000,-0.100000)"
fill="#000000" stroke="none">
<path d="M3019 4526 c-2 -2 -49 -6 -104 -10 -158 -10 -344 -65 -469 -141 -32
-19 -62 -35 -66 -35 -5 0 -10 -3 -12 -7 -1 -5 -23 -21 -47 -38 -74 -50 -197
-180 -259 -274 l-58 -89 -57 24 c-188 80 -411 61 -572 -47 -154 -103 -260
-300 -264 -485 l-1 -41 -68 -23 c-345 -116 -617 -431 -685 -795 -24 -128 -21
-230 8 -405 11 -64 91 -247 141 -321 101 -153 261 -293 418 -369 122 -58 204
-82 331 -97 67 -8 2793 -8 2871 0 379 39 735 334 859 713 60 184 65 366 15
558 -19 72 -49 150 -71 186 -5 8 -14 26 -19 39 -18 41 -108 164 -162 221 -124
130 -320 249 -473 287 -42 10 -111 24 -139 28 -38 5 -38 6 -43 72 -22 370
-247 724 -575 907 -68 38 -198 92 -238 99 -14 3 -43 10 -65 15 -22 6 -71 14
-110 18 -38 3 -73 8 -76 10 -3 2 -8 2 -10 0z"/>
</g>
</svg>
